<?xml version="1.0" standalone="no"?>
<!DOCTYPE svg PUBLIC "-//W3C//DTD SVG 20010904//EN"
 "http://www.w3.org/TR/2001/REC-SVG-20010904/DTD/svg10.dtd">
<svg version="1.0" xmlns="http://www.w3.org/2000/svg"
 width="512.000000pt" height="512.000000pt" viewBox="0 0 512.000000 512.000000"
 preserveAspectRatio="xMidYMid meet">

<g transform="translate(0.000000,512.000000) scale(0.100000,-0.100000)"
fill="#000000" stroke="none">
<path d="M1634 4936 c-144 -35 -576 -286 -672 -390 -24 -26 -58 -77 -75 -114
-29 -61 -32 -75 -32 -167 0 -92 3 -106 32 -167 18 -39 57 -94 93 -133 124
-133 123 -188 -8 -387 -27 -43 -75 -126 -105 -185 -31 -60 -66 -118 -79 -130
-56 -53 -137 -65 -235 -37 -37 11 -82 15 -141 12 -72 -3 -98 -8 -154 -35 -111
-52 -191 -148 -222 -266 -26 -99 -39 -358 -26 -534 6 -86 15 -177 21 -201 27
-120 112 -228 225 -283 56 -28 80 -34 154 -37 61 -3 103 0 143 12 104 30 189
14 243 -46 12 -12 53 -83 92 -156 39 -72 90 -159 112 -193 53 -77 70 -118 70
-169 0 -60 -24 -107 -91 -176 -167 -175 -169 -426 -5 -589 66 -65 252 -188
408 -270 213 -111 308 -137 423 -116 169 31 294 154 335 328 16 70 61 130 113
153 37 16 73 18 312 18 297 0 308 -2 367 -65 27 -28 58 -99 58 -133 0 -33 62
-140 108 -186 109 -107 265 -146 412 -102 148 44 485 236 614 349 103 91 151
203 143 334 -6 117 -34 179 -121 274 -124 135 -127 193 -17 361 30 47 85 141
121 210 52 100 73 130 107 153 54 39 119 45 213 22 152 -37 300 -1 401 97 97
94 123 171 139 409 11 164 0 423 -21 517 -26 119 -116 230 -229 284 -82 40
-196 49 -282 24 -71 -20 -151 -20 -194 0 -49 24 -84 68 -143 184 -30 57 -78
142 -109 189 -67 104 -82 139 -82 191 0 60 24 107 91 176 167 174 169 426 5
589 -126 125 -545 361 -687 386 -212 38 -419 -97 -470 -307 -22 -91 -57 -142
-119 -174 -31 -16 -65 -18 -310 -18 -225 0 -280 3 -305 15 -65 33 -101 84
-124 177 -38 156 -159 271 -319 305 -66 14 -112 13 -178 -3z m1076 -1320 c239
-37 436 -135 604 -302 127 -128 211 -267 265 -439 65 -207 65 -423 0 -630 -54
-172 -138 -311 -265 -439 -163 -162 -362 -264 -585 -301 -700 -113 -1322 490
-1229 1192 13 91 61 256 97 328 104 207 292 395 498 498 115 57 315 104 455
106 36 0 108 -6 160 -13z"/>
</g>
</svg>
